<svg xmlns="http://www.w3.org/2000/svg" xmlns:xlink="http://www.w3.org/1999/xlink" width="500" zoomAndPan="magnify" viewBox="0 0 375 225" height="300" preserveAspectRatio="xMidYMid meet" version="1.0"><defs><g/><clipPath id="0a7572b265"><path d="M 14.636719 49.273438 L 107.40625 49.273438 L 107.40625 142.273438 L 14.636719 142.273438 Z M 14.636719 49.273438 " clip-rule="nonzero"/></clipPath><clipPath id="73b25b7457"><path d="M 35.894531 59.585938 L 86.144531 59.585938 L 86.144531 114.335938 L 35.894531 114.335938 Z M 35.894531 59.585938 " clip-rule="nonzero"/></clipPath></defs><g clip-path="url(#0a7572b265)"><path fill="#212121" d="M 59.988281 121.578125 C 48.402344 121.328125 38.023438 117.359375 30.550781 111.121094 C 23.171875 104.960938 18.640625 96.585938 18.640625 87.4375 C 18.640625 78.089844 23.335938 69.597656 30.929688 63.429688 C 38.636719 57.167969 49.3125 53.292969 61.128906 53.292969 C 72.945312 53.292969 83.621094 57.167969 91.328125 63.429688 C 98.921875 69.597656 103.621094 78.089844 103.621094 87.4375 C 103.621094 94.480469 100.882812 101.082031 96.25 106.558594 C 91.40625 112.285156 84.5 116.78125 76.472656 119.28125 L 74.222656 119.984375 L 75.277344 122.089844 L 81.757812 135.046875 L 61.011719 121.882812 Z M 28 114.195312 C 36.015625 120.886719 47.050781 125.179688 59.34375 125.566406 L 85.699219 142.285156 L 88.542969 139.695312 L 79.871094 122.359375 C 87.691406 119.523438 94.429688 114.90625 99.300781 109.148438 C 104.53125 102.964844 107.621094 95.472656 107.621094 87.4375 C 107.621094 76.824219 102.359375 67.238281 93.847656 60.320312 C 85.449219 53.496094 73.878906 49.273438 61.128906 49.273438 C 48.378906 49.273438 36.8125 53.496094 28.414062 60.320312 C 19.902344 67.238281 14.636719 76.824219 14.636719 87.4375 C 14.636719 97.824219 19.71875 107.285156 28 114.195312 " fill-opacity="1" fill-rule="nonzero"/></g><g clip-path="url(#73b25b7457)"><path fill="#000000" d="M 63.796875 114.113281 L 58.101562 114.113281 C 57.316406 114.113281 56.679688 113.472656 56.679688 112.683594 L 56.679688 94.425781 L 40.871094 103.492188 C 40.195312 103.882812 39.332031 103.648438 38.9375 102.976562 L 36.09375 98.117188 C 35.898438 97.789062 35.847656 97.398438 35.941406 97.03125 C 36.039062 96.660156 36.277344 96.347656 36.605469 96.15625 L 52.414062 86.960938 L 36.605469 77.765625 C 36.277344 77.574219 36.039062 77.257812 35.941406 76.890625 C 35.847656 76.523438 35.898438 76.132812 36.089844 75.804688 L 38.9375 70.945312 C 39.332031 70.269531 40.195312 70.039062 40.871094 70.429688 L 56.679688 79.496094 L 56.679688 61.238281 C 56.679688 60.449219 57.316406 59.808594 58.101562 59.808594 L 63.796875 59.808594 C 64.582031 59.808594 65.21875 60.449219 65.21875 61.238281 L 65.21875 79.496094 L 81.027344 70.429688 C 81.703125 70.042969 82.5625 70.269531 82.960938 70.945312 L 85.808594 75.804688 C 86 76.132812 86.054688 76.523438 85.953125 76.890625 C 85.859375 77.257812 85.621094 77.574219 85.292969 77.765625 L 69.484375 86.960938 L 85.292969 96.15625 C 85.617188 96.347656 85.859375 96.660156 85.953125 97.027344 C 86.050781 97.394531 85.996094 97.789062 85.808594 98.117188 L 82.960938 102.976562 C 82.5625 103.648438 81.703125 103.882812 81.027344 103.492188 L 65.21875 94.425781 L 65.21875 112.683594 C 65.21875 113.472656 64.582031 114.113281 63.796875 114.113281 Z M 63.796875 114.113281 " fill-opacity="1" fill-rule="nonzero"/></g><g fill="#000000" fill-opacity="1"><g transform="translate(104.604912, 124.518118)"><g><path d="M 31.71875 -41.984375 C 37.257812 -41.984375 41.53125 -40.164062 44.53125 -36.53125 C 47.539062 -32.90625 49.046875 -27.539062 49.046875 -20.4375 C 49.046875 -13.394531 47.539062 -8.070312 44.53125 -4.46875 C 41.53125 -0.863281 37.257812 0.9375 31.71875 0.9375 C 26.945312 0.9375 23.113281 -0.617188 20.21875 -3.734375 L 20.21875 15.3125 L 4.734375 15.3125 L 4.734375 -41.046875 L 17.328125 -41.046875 L 18.65625 -35.21875 C 21.664062 -39.726562 26.019531 -41.984375 31.71875 -41.984375 Z M 26.890625 -30.546875 C 24.609375 -30.546875 22.898438 -29.742188 21.765625 -28.140625 C 20.628906 -26.535156 20.0625 -24.4375 20.0625 -21.84375 L 20.0625 -19.28125 C 20.0625 -16.6875 20.628906 -14.570312 21.765625 -12.9375 C 22.898438 -11.3125 24.609375 -10.5 26.890625 -10.5 C 31.347656 -10.5 33.578125 -13.164062 33.578125 -18.5 L 33.578125 -22.625 C 33.578125 -27.90625 31.347656 -30.546875 26.890625 -30.546875 Z M 26.890625 -30.546875 "/></g></g></g><g fill="#000000" fill-opacity="1"><g transform="translate(150.386752, 124.518118)"><g><path d="M 32.03125 -41.046875 L 32.03125 -30.546875 L 23.328125 -30.546875 L 23.328125 -14.921875 C 23.328125 -13.054688 23.632812 -11.695312 24.25 -10.84375 C 24.875 -9.988281 26.015625 -9.5625 27.671875 -9.5625 L 32.03125 -9.5625 L 32.03125 -0.46875 C 30.78125 -0.0507812 29.171875 0.285156 27.203125 0.546875 C 25.234375 0.804688 23.523438 0.9375 22.078125 0.9375 C 17.515625 0.9375 14 0.109375 11.53125 -1.546875 C 9.070312 -3.210938 7.84375 -6.039062 7.84375 -10.03125 L 7.84375 -30.546875 L 2.09375 -30.546875 L 2.09375 -41.046875 L 8.46875 -41.046875 L 11.8125 -53.484375 L 23.328125 -53.484375 L 23.328125 -41.046875 Z M 32.03125 -41.046875 "/></g></g></g><g fill="#000000" fill-opacity="1"><g transform="translate(178.835225, 124.518118)"><g><path d="M 5.203125 -45.859375 L 5.203125 -56.359375 L 20.671875 -56.359375 L 20.671875 -45.859375 Z M 5.203125 0 L 5.203125 -41.046875 L 20.671875 -41.046875 L 20.671875 0 Z M 5.203125 0 "/></g></g></g><g fill="#000000" fill-opacity="1"><g transform="translate(198.655899, 124.518118)"><g><path d="M 59.15625 -41.984375 C 63.820312 -41.984375 67.316406 -40.644531 69.640625 -37.96875 C 71.972656 -35.300781 73.140625 -31.503906 73.140625 -26.578125 L 73.140625 0 L 57.671875 0 L 57.671875 -24.71875 C 57.671875 -26.476562 57.242188 -27.890625 56.390625 -28.953125 C 55.535156 -30.015625 54.332031 -30.546875 52.78125 -30.546875 C 50.96875 -30.546875 49.488281 -29.921875 48.34375 -28.671875 C 47.207031 -27.429688 46.640625 -25.90625 46.640625 -24.09375 L 46.640625 0 L 31.171875 0 L 31.171875 -24.71875 C 31.171875 -26.476562 30.742188 -27.890625 29.890625 -28.953125 C 29.035156 -30.015625 27.832031 -30.546875 26.28125 -30.546875 C 24.457031 -30.546875 22.976562 -29.921875 21.84375 -28.671875 C 20.707031 -27.429688 20.140625 -25.90625 20.140625 -24.09375 L 20.140625 0 L 4.671875 0 L 4.671875 -41.046875 L 17.328125 -41.046875 L 18.34375 -34.90625 C 19.894531 -37.082031 21.953125 -38.804688 24.515625 -40.078125 C 27.085938 -41.347656 29.800781 -41.984375 32.65625 -41.984375 C 38.820312 -41.984375 42.96875 -39.625 45.09375 -34.90625 C 46.695312 -37.082031 48.753906 -38.804688 51.265625 -40.078125 C 53.773438 -41.347656 56.40625 -41.984375 59.15625 -41.984375 Z M 59.15625 -41.984375 "/></g></g></g><g fill="#000000" fill-opacity="1"><g transform="translate(270.321182, 124.518118)"><g><path d="M 34.4375 0 L 33.421875 -6.21875 C 31.816406 -3.988281 29.707031 -2.238281 27.09375 -0.96875 C 24.476562 0.300781 21.71875 0.9375 18.8125 0.9375 C 14.039062 0.9375 10.460938 -0.382812 8.078125 -3.03125 C 5.703125 -5.675781 4.515625 -9.484375 4.515625 -14.453125 L 4.515625 -41.046875 L 19.984375 -41.046875 L 19.984375 -16.328125 C 19.984375 -14.566406 20.4375 -13.15625 21.34375 -12.09375 C 22.25 -11.03125 23.53125 -10.5 25.1875 -10.5 C 27.101562 -10.5 28.65625 -11.117188 29.84375 -12.359375 C 31.039062 -13.597656 31.640625 -15.128906 31.640625 -16.953125 L 31.640625 -41.046875 L 47.109375 -41.046875 L 47.109375 0 Z M 34.4375 0 "/></g></g></g><g fill="#000000" fill-opacity="1"><g transform="translate(316.103017, 124.518118)"><g><path d="M 24.171875 -41.984375 C 29.671875 -41.984375 34.320312 -40.90625 38.125 -38.75 C 41.9375 -36.601562 43.84375 -33.273438 43.84375 -28.765625 L 29.46875 -28.765625 C 29.46875 -30.265625 28.789062 -31.328125 27.4375 -31.953125 C 26.507812 -32.460938 25.34375 -32.71875 23.9375 -32.71875 C 20.207031 -32.71875 18.34375 -31.835938 18.34375 -30.078125 C 18.34375 -29.097656 18.988281 -28.398438 20.28125 -27.984375 C 21.582031 -27.566406 23.707031 -27.125 26.65625 -26.65625 C 30.289062 -26.144531 33.320312 -25.535156 35.75 -24.828125 C 38.1875 -24.128906 40.3125 -22.882812 42.125 -21.09375 C 43.945312 -19.3125 44.859375 -16.816406 44.859375 -13.609375 C 44.859375 -8.367188 42.898438 -4.632812 38.984375 -2.40625 C 35.066406 -0.175781 29.945312 0.9375 23.625 0.9375 C 20 0.9375 16.578125 0.429688 13.359375 -0.578125 C 10.148438 -1.585938 7.535156 -3.15625 5.515625 -5.28125 C 3.492188 -7.40625 2.484375 -10.101562 2.484375 -13.375 L 16.875 -13.375 L 16.875 -13.0625 C 16.925781 -11.300781 17.660156 -10.066406 19.078125 -9.359375 C 20.503906 -8.660156 22.019531 -8.3125 23.625 -8.3125 C 27.925781 -8.3125 30.078125 -9.320312 30.078125 -11.34375 C 30.078125 -12.382812 29.40625 -13.132812 28.0625 -13.59375 C 26.71875 -14.0625 24.515625 -14.554688 21.453125 -15.078125 C 17.773438 -15.703125 14.753906 -16.375 12.390625 -17.09375 C 10.035156 -17.820312 7.976562 -19.050781 6.21875 -20.78125 C 4.457031 -22.519531 3.578125 -24.945312 3.578125 -28.0625 C 3.578125 -33.09375 5.476562 -36.671875 9.28125 -38.796875 C 13.09375 -40.921875 18.054688 -41.984375 24.171875 -41.984375 Z M 24.171875 -41.984375 "/></g></g></g><g fill="#545454" fill-opacity="1"><g transform="translate(122.685823, 163.34847)"><g><path d="M 19.953125 -30.375 C 17.066406 -30.375 14.828125 -29.285156 13.234375 -27.109375 C 11.648438 -24.941406 10.859375 -21.914062 10.859375 -18.03125 C 10.859375 -9.945312 13.890625 -5.90625 19.953125 -5.90625 C 22.503906 -5.90625 25.585938 -6.539062 29.203125 -7.8125 L 29.203125 -1.359375 C 26.234375 -0.117188 22.910156 0.5 19.234375 0.5 C 13.960938 0.5 9.929688 -1.097656 7.140625 -4.296875 C 4.347656 -7.492188 2.953125 -12.085938 2.953125 -18.078125 C 2.953125 -21.847656 3.632812 -25.148438 5 -27.984375 C 6.375 -30.816406 8.347656 -32.988281 10.921875 -34.5 C 13.492188 -36.007812 16.503906 -36.765625 19.953125 -36.765625 C 23.472656 -36.765625 27.015625 -35.914062 30.578125 -34.21875 L 28.09375 -27.96875 C 26.738281 -28.613281 25.375 -29.175781 24 -29.65625 C 22.625 -30.132812 21.273438 -30.375 19.953125 -30.375 Z M 19.953125 -30.375 "/></g></g><g transform="translate(155.042365, 163.34847)"><g><path d="M 21.578125 0 L 20.109375 -3.765625 L 19.90625 -3.765625 C 18.632812 -2.160156 17.320312 -1.046875 15.96875 -0.421875 C 14.625 0.191406 12.875 0.5 10.71875 0.5 C 8.050781 0.5 5.953125 -0.257812 4.421875 -1.78125 C 2.890625 -3.300781 2.125 -5.46875 2.125 -8.28125 C 2.125 -11.226562 3.15625 -13.398438 5.21875 -14.796875 C 7.28125 -16.191406 10.382812 -16.960938 14.53125 -17.109375 L 19.34375 -17.25 L 19.34375 -18.46875 C 19.34375 -21.28125 17.90625 -22.6875 15.03125 -22.6875 C 12.8125 -22.6875 10.207031 -22.015625 7.21875 -20.671875 L 4.71875 -25.78125 C 7.90625 -27.457031 11.441406 -28.296875 15.328125 -28.296875 C 19.046875 -28.296875 21.894531 -27.484375 23.875 -25.859375 C 25.863281 -24.242188 26.859375 -21.78125 26.859375 -18.46875 L 26.859375 0 Z M 19.34375 -12.84375 L 16.421875 -12.75 C 14.210938 -12.675781 12.570312 -12.273438 11.5 -11.546875 C 10.425781 -10.828125 9.890625 -9.722656 9.890625 -8.234375 C 9.890625 -6.097656 11.113281 -5.03125 13.5625 -5.03125 C 15.3125 -5.03125 16.710938 -5.535156 17.765625 -6.546875 C 18.816406 -7.554688 19.34375 -8.894531 19.34375 -10.5625 Z M 19.34375 -12.84375 "/></g></g><g transform="translate(185.712896, 163.34847)"><g><path d="M 11.53125 0 L 3.96875 0 L 3.96875 -38.578125 L 11.53125 -38.578125 Z M 11.53125 0 "/></g></g><g transform="translate(201.209325, 163.34847)"><g><path d="M 11.53125 0 L 3.96875 0 L 3.96875 -38.578125 L 11.53125 -38.578125 Z M 11.53125 0 "/></g></g></g><g fill="#737373" fill-opacity="1"><g transform="translate(212.75447, 163.447293)"><g><path d="M 18.453125 -29.703125 C 14.867188 -29.703125 12.035156 -28.507812 9.953125 -26.125 C 7.878906 -23.738281 6.84375 -20.46875 6.84375 -16.3125 C 6.84375 -12.039062 7.84375 -8.738281 9.84375 -6.40625 C 11.851562 -4.082031 14.707031 -2.921875 18.40625 -2.921875 C 20.6875 -2.921875 23.285156 -3.332031 26.203125 -4.15625 L 26.203125 -0.828125 C 23.941406 0.0234375 21.148438 0.453125 17.828125 0.453125 C 13.023438 0.453125 9.316406 -1.003906 6.703125 -3.921875 C 4.097656 -6.835938 2.796875 -10.984375 2.796875 -16.359375 C 2.796875 -19.722656 3.421875 -22.664062 4.671875 -25.1875 C 5.929688 -27.71875 7.75 -29.664062 10.125 -31.03125 C 12.5 -32.40625 15.289062 -33.09375 18.5 -33.09375 C 21.914062 -33.09375 24.90625 -32.46875 27.46875 -31.21875 L 25.859375 -27.96875 C 23.390625 -29.125 20.921875 -29.703125 18.453125 -29.703125 Z M 18.453125 -29.703125 "/></g></g></g><g fill="#737373" fill-opacity="1"><g transform="translate(241.584407, 163.447293)"><g><path d="M 14.265625 0.453125 C 10.648438 0.453125 7.796875 -0.644531 5.703125 -2.84375 C 3.609375 -5.050781 2.5625 -8.113281 2.5625 -12.03125 C 2.5625 -15.96875 3.53125 -19.097656 5.46875 -21.421875 C 7.414062 -23.742188 10.023438 -24.90625 13.296875 -24.90625 C 16.359375 -24.90625 18.78125 -23.894531 20.5625 -21.875 C 22.351562 -19.863281 23.25 -17.207031 23.25 -13.90625 L 23.25 -11.5625 L 6.40625 -11.5625 C 6.476562 -8.6875 7.203125 -6.503906 8.578125 -5.015625 C 9.953125 -3.535156 11.890625 -2.796875 14.390625 -2.796875 C 17.023438 -2.796875 19.628906 -3.34375 22.203125 -4.4375 L 22.203125 -1.140625 C 20.890625 -0.578125 19.648438 -0.171875 18.484375 0.078125 C 17.316406 0.328125 15.910156 0.453125 14.265625 0.453125 Z M 13.25 -21.796875 C 11.289062 -21.796875 9.726562 -21.15625 8.5625 -19.875 C 7.394531 -18.601562 6.707031 -16.835938 6.5 -14.578125 L 19.28125 -14.578125 C 19.28125 -16.910156 18.757812 -18.695312 17.71875 -19.9375 C 16.675781 -21.175781 15.1875 -21.796875 13.25 -21.796875 Z M 13.25 -21.796875 "/></g></g></g><g fill="#737373" fill-opacity="1"><g transform="translate(267.223415, 163.447293)"><g><path d="M 20.671875 0 L 20.671875 -15.828125 C 20.671875 -17.816406 20.210938 -19.300781 19.296875 -20.28125 C 18.390625 -21.269531 16.972656 -21.765625 15.046875 -21.765625 C 12.484375 -21.765625 10.601562 -21.070312 9.40625 -19.6875 C 8.21875 -18.300781 7.625 -16.015625 7.625 -12.828125 L 7.625 0 L 3.921875 0 L 3.921875 -24.453125 L 6.9375 -24.453125 L 7.546875 -21.109375 L 7.71875 -21.109375 C 8.476562 -22.316406 9.539062 -23.25 10.90625 -23.90625 C 12.28125 -24.570312 13.804688 -24.90625 15.484375 -24.90625 C 18.429688 -24.90625 20.648438 -24.191406 22.140625 -22.765625 C 23.628906 -21.347656 24.375 -19.078125 24.375 -15.953125 L 24.375 0 Z M 20.671875 0 "/></g></g></g><g fill="#737373" fill-opacity="1"><g transform="translate(295.272355, 163.447293)"><g><path d="M 11.828125 -2.609375 C 12.484375 -2.609375 13.113281 -2.65625 13.71875 -2.75 C 14.332031 -2.851562 14.816406 -2.957031 15.171875 -3.0625 L 15.171875 -0.21875 C 14.773438 -0.03125 14.1875 0.125 13.40625 0.25 C 12.625 0.382812 11.921875 0.453125 11.296875 0.453125 C 6.566406 0.453125 4.203125 -2.039062 4.203125 -7.03125 L 4.203125 -21.578125 L 0.6875 -21.578125 L 0.6875 -23.359375 L 4.203125 -24.90625 L 5.75 -30.125 L 7.90625 -30.125 L 7.90625 -24.453125 L 15 -24.453125 L 15 -21.578125 L 7.90625 -21.578125 L 7.90625 -7.1875 C 7.90625 -5.707031 8.253906 -4.570312 8.953125 -3.78125 C 9.648438 -3 10.609375 -2.609375 11.828125 -2.609375 Z M 11.828125 -2.609375 "/></g></g></g><g fill="#737373" fill-opacity="1"><g transform="translate(311.405517, 163.447293)"><g><path d="M 14.265625 0.453125 C 10.648438 0.453125 7.796875 -0.644531 5.703125 -2.84375 C 3.609375 -5.050781 2.5625 -8.113281 2.5625 -12.03125 C 2.5625 -15.96875 3.53125 -19.097656 5.46875 -21.421875 C 7.414062 -23.742188 10.023438 -24.90625 13.296875 -24.90625 C 16.359375 -24.90625 18.78125 -23.894531 20.5625 -21.875 C 22.351562 -19.863281 23.25 -17.207031 23.25 -13.90625 L 23.25 -11.5625 L 6.40625 -11.5625 C 6.476562 -8.6875 7.203125 -6.503906 8.578125 -5.015625 C 9.953125 -3.535156 11.890625 -2.796875 14.390625 -2.796875 C 17.023438 -2.796875 19.628906 -3.34375 22.203125 -4.4375 L 22.203125 -1.140625 C 20.890625 -0.578125 19.648438 -0.171875 18.484375 0.078125 C 17.316406 0.328125 15.910156 0.453125 14.265625 0.453125 Z M 13.25 -21.796875 C 11.289062 -21.796875 9.726562 -21.15625 8.5625 -19.875 C 7.394531 -18.601562 6.707031 -16.835938 6.5 -14.578125 L 19.28125 -14.578125 C 19.28125 -16.910156 18.757812 -18.695312 17.71875 -19.9375 C 16.675781 -21.175781 15.1875 -21.796875 13.25 -21.796875 Z M 13.25 -21.796875 "/></g></g></g><g fill="#737373" fill-opacity="1"><g transform="translate(337.044524, 163.447293)"><g><path d="M 15.078125 -24.90625 C 16.171875 -24.90625 17.148438 -24.816406 18.015625 -24.640625 L 17.5 -21.203125 C 16.488281 -21.421875 15.59375 -21.53125 14.8125 -21.53125 C 12.832031 -21.53125 11.140625 -20.726562 9.734375 -19.125 C 8.328125 -17.519531 7.625 -15.519531 7.625 -13.125 L 7.625 0 L 3.921875 0 L 3.921875 -24.453125 L 6.984375 -24.453125 L 7.40625 -19.921875 L 7.59375 -19.921875 C 8.5 -21.515625 9.585938 -22.742188 10.859375 -23.609375 C 12.140625 -24.472656 13.546875 -24.90625 15.078125 -24.90625 Z M 15.078125 -24.90625 "/></g></g></g></svg>